<svg xmlns="http://www.w3.org/2000/svg" width="11.152" height="11.152" viewBox="0 0 11.152 11.152">
  <path id="Icon_material-copyright" data-name="Icon material-copyright" d="M7.506,7.94a1.426,1.426,0,0,1,.167-.485A.975.975,0,0,1,8,7.11a.99.99,0,0,1,.507-.128,1.011,1.011,0,0,1,.351.072.9.9,0,0,1,.29.2,1.074,1.074,0,0,1,.19.3.976.976,0,0,1,.078.357h1a2,2,0,0,0-.156-.719,1.673,1.673,0,0,0-.39-.563,1.821,1.821,0,0,0-.6-.368,2.154,2.154,0,0,0-.775-.128,2.179,2.179,0,0,0-.948.19,1.918,1.918,0,0,0-.669.513,2.1,2.1,0,0,0-.4.758,3.266,3.266,0,0,0-.134.914v.151a3.265,3.265,0,0,0,.128.914,2.027,2.027,0,0,0,.4.753,1.9,1.9,0,0,0,.669.507,2.263,2.263,0,0,0,.948.19,2.127,2.127,0,0,0,.736-.128,1.9,1.9,0,0,0,.6-.351,1.7,1.7,0,0,0,.413-.524,1.5,1.5,0,0,0,.167-.641h-1a.794.794,0,0,1-.084.323.821.821,0,0,1-.2.257.878.878,0,0,1-.29.167,1.107,1.107,0,0,1-.335.056.947.947,0,0,1-.5-.128A.975.975,0,0,1,7.673,9.7a1.457,1.457,0,0,1-.167-.491,3.758,3.758,0,0,1-.045-.558V8.5a3.715,3.715,0,0,1,.045-.563ZM8.576,3a5.576,5.576,0,1,0,5.576,5.576A5.578,5.578,0,0,0,8.576,3Zm0,10.037a4.461,4.461,0,1,1,4.461-4.461A4.467,4.467,0,0,1,8.576,13.037Z" transform="translate(-3 -3)"/>
</svg>
