<svg xmlns="http://www.w3.org/2000/svg" width="32" height="32" viewBox="0 0 32 32">
  <g id="Group_134" data-name="Group 134" transform="translate(-2520 -4285)">
    <circle id="Ellipse_44" data-name="Ellipse 44" cx="16" cy="16" r="16" transform="translate(2520 4285)" fill="#fff"/>
    <path id="Icon_awesome-instagram" data-name="Icon awesome-instagram" d="M9.076,6.66a4.655,4.655,0,1,0,4.655,4.655A4.647,4.647,0,0,0,9.076,6.66Zm0,7.681A3.026,3.026,0,1,1,12.1,11.315a3.032,3.032,0,0,1-3.026,3.026ZM15.006,6.47a1.086,1.086,0,1,1-1.086-1.086A1.083,1.083,0,0,1,15.006,6.47Zm3.083,1.1a5.373,5.373,0,0,0-1.466-3.8,5.408,5.408,0,0,0-3.8-1.466c-1.5-.085-5.991-.085-7.49,0a5.4,5.4,0,0,0-3.8,1.462,5.39,5.39,0,0,0-1.466,3.8c-.085,1.5-.085,5.991,0,7.49a5.373,5.373,0,0,0,1.466,3.8,5.415,5.415,0,0,0,3.8,1.466c1.5.085,5.991.085,7.49,0a5.373,5.373,0,0,0,3.8-1.466,5.408,5.408,0,0,0,1.466-3.8c.085-1.5.085-5.987,0-7.486Zm-1.936,9.094a3.064,3.064,0,0,1-1.726,1.726c-1.2.474-4.031.365-5.351.365s-4.16.105-5.351-.365A3.064,3.064,0,0,1,2,16.666c-.474-1.2-.365-4.031-.365-5.351S1.529,7.154,2,5.964A3.064,3.064,0,0,1,3.725,4.238c1.2-.474,4.031-.365,5.351-.365s4.16-.105,5.351.365a3.064,3.064,0,0,1,1.726,1.726c.474,1.2.365,4.031.365,5.351S16.627,15.475,16.153,16.666Z" transform="translate(2526.869 4289.541)"/>
  </g>
</svg>
