<svg xmlns="http://www.w3.org/2000/svg" width="80.655" height="80.806" viewBox="0 0 80.655 80.806">
  <path id="Icon_feather-phone" data-name="Icon feather-phone" d="M77.817,59v11.26a7.507,7.507,0,0,1-8.183,7.507A74.281,74.281,0,0,1,37.242,66.246,73.193,73.193,0,0,1,14.721,43.725,74.281,74.281,0,0,1,3.2,11.183,7.507,7.507,0,0,1,10.668,3h11.26a7.507,7.507,0,0,1,7.507,6.456A48.194,48.194,0,0,0,32.062,20a7.507,7.507,0,0,1-1.689,7.92L25.606,32.69A60.056,60.056,0,0,0,48.127,55.211l4.767-4.767a7.507,7.507,0,0,1,7.92-1.689,48.194,48.194,0,0,0,10.547,2.627A7.507,7.507,0,0,1,77.817,59Z" transform="translate(-0.165 0)" fill="none" stroke="#fff" stroke-linecap="round" stroke-linejoin="round" stroke-width="6"/>
</svg>
