<svg id="Search_Icon" data-name="Search Icon" xmlns="http://www.w3.org/2000/svg" width="21.457" height="21.457" viewBox="0 0 21.457 21.457">
  <path id="Path_2" data-name="Path 2" d="M2.682,9.387A6.64,6.64,0,0,1,9.387,2.682a6.64,6.64,0,0,1,6.705,6.705,6.64,6.64,0,0,1-6.705,6.705A6.64,6.64,0,0,1,2.682,9.387ZM19.177,21.054a1.328,1.328,0,1,0,1.877-1.877L16.9,15.02a9.182,9.182,0,0,0,1.877-5.632A9.329,9.329,0,0,0,9.387,0,9.329,9.329,0,0,0,0,9.387a9.329,9.329,0,0,0,9.387,9.387A9.182,9.182,0,0,0,15.02,16.9Z"/>
</svg>
